<?xml version="1.0" encoding="UTF-8"?>
<svg width="24px" height="24px" viewBox="0 0 24 24" version="1.1" xmlns="http://www.w3.org/2000/svg" xmlns:xlink="http://www.w3.org/1999/xlink">
    <!-- Generator: Sketch 53 (72520) - https://sketchapp.com -->
    <title>pencil_checkmark_v1</title>
    <desc>Created with Sketch.</desc>
    <g id="pencil_checkmark_v1" stroke="none" stroke-width="1" fill="none" fill-rule="evenodd">
        <path d="M14.0480846,2.40302944 C13.9375131,2.41631157 13.8347434,2.46680292 13.7566504,2.54621281 L3.17298442,13.1315971 C3.10586021,13.198827 3.05968171,13.2840921 3.04004949,13.3770515 L2.411165,16.2049479 C2.37561305,16.3688763 2.4261992,16.5396133 2.54530798,16.6577037 C2.66441677,16.7757941 2.83556206,16.8248927 2.99914643,16.7879021 L5.82145727,16.1640388 C5.91440265,16.1444047 5.99965535,16.0982194 6.06687566,16.0310844 L16.6556544,5.44057499 C16.748061,5.34845531 16.8,5.22333282 16.8,5.09284221 C16.8,4.9623516 16.748061,4.83722911 16.6556544,4.74510943 L14.4520024,2.54621281 C14.3464004,2.43912278 14.1975449,2.38635552 14.0480846,2.40302944 L14.0480846,2.40302944 Z M14.1043264,3.5842967 L15.6126266,5.09284303 L14.9684034,5.73717063 L13.4601032,4.2286243 L14.1043264,3.5842967 Z M12.7698641,4.91897623 L14.2730514,6.43263619 L6.19981065,14.5071889 L4.69151043,12.9986426 L12.7698641,4.91897623 L12.7698641,4.91897623 Z M3.99615843,13.6941131 L5.50957146,15.1975376 L5.47378143,15.2333412 L3.53599903,15.6628864 L3.96548121,13.7247949 L3.99615843,13.6941131 Z" id="Shape" fill="#464646" fill-rule="nonzero"></path>
        <path d="M21.4618705,12 C19.4112355,13.4375118 17.0497315,16.8836711 15.5913675,19.2768634 C15.0388496,18.5935904 13.7956831,17.6370095 13.2431652,17.3636921 C12.8287768,17.7736614 12.3457094,18.3520043 12,18.7302423 C12.9669063,19.4135153 14.7625907,20.2334539 15.729497,21.6 C17.2489211,18.5935904 18.2848928,16.3729557 21.6,14.186471 L21.4618705,12 Z" id="Shape-Copy-9" fill="#464646" fill-rule="nonzero"></path>
    </g>
</svg>