<?xml version="1.0" encoding="UTF-8"?>
<svg width="24px" height="24px" viewBox="0 0 24 24" version="1.1" xmlns="http://www.w3.org/2000/svg" xmlns:xlink="http://www.w3.org/1999/xlink">
    <!-- Generator: Sketch 53 (72520) - https://sketchapp.com -->
    <title>color_6_v2</title>
    <desc>Created with Sketch.</desc>
    <g id="color_6_v2" stroke="none" stroke-width="1" fill="none" fill-rule="evenodd">
        <g id="Group-Copy-6" transform="translate(2.400000, 3.400000)" fill="#C2C2C2" stroke="#C2C2C2" stroke-width="0.4">
            <rect id="Rectangle" x="0" y="0" width="13" height="1"></rect>
            <rect id="Rectangle-Copy-8" x="0" y="12" width="19.2" height="1"></rect>
            <rect id="Rectangle-Copy-9" x="0" y="16" width="19.2" height="1"></rect>
            <rect id="Rectangle-Copy-6" x="0" y="4" width="19.2" height="1"></rect>
            <rect id="Rectangle-Copy-7" x="0" y="8" width="7" height="1"></rect>
        </g>
        <ellipse id="Oval" fill="#FFFFFF" cx="12" cy="12" rx="7" ry="5"></ellipse>
        <path d="M19.9670523,11.863471 C19.1182252,8.35605707 15.2062838,6 12.0849167,6 C8.94741535,6 4.86920709,8.40790823 4.03294767,11.863471 L4,12 L4.03294767,12.136529 C4.86920709,15.5920918 8.94741535,18 12.0849167,18 C15.2062838,18 19.1182252,15.6439429 19.9670523,12.136529 L20,12 L19.9670523,11.863471 Z M12.0849167,16.9359321 C9.34261756,16.9359321 5.80295085,14.915975 5.00456427,12 C5.80295085,9.08402499 9.34261756,7.06406789 12.0849167,7.06406789 C14.7482433,7.06406789 18.1997665,9.08402499 18.9954357,12 C18.1997665,14.915975 14.7482433,16.9359321 12.0849167,16.9359321 Z M12.127375,8.83894433 C10.490691,8.83894433 9.1641227,10.2959993 9.1641227,12.0932575 C9.1641227,13.8905157 10.4908608,15.3475706 12.127375,15.3475706 C13.7638892,15.3475706 15.0906273,13.8907022 15.0906273,12.0932575 C15.0906273,10.2958127 13.764059,8.83894433 12.127375,8.83894433 Z" id="Shape-Copy-11" fill="#464646" fill-rule="nonzero"></path>
    </g>
</svg>