<?xml version="1.0" encoding="UTF-8"?>
<svg width="24px" height="24px" viewBox="0 0 24 24" version="1.1" xmlns="http://www.w3.org/2000/svg" xmlns:xlink="http://www.w3.org/1999/xlink">
    <!-- Generator: Sketch 53 (72520) - https://sketchapp.com -->
    <title>pencil_v1</title>
    <desc>Created with Sketch.</desc>
    <g id="pencil_v1" stroke="none" stroke-width="1" fill="none" fill-rule="evenodd">
        <path d="M16.4480846,4.80302944 C16.3375131,4.81631157 16.2347434,4.86680292 16.1566504,4.94621281 L5.57298442,15.5315971 C5.50586021,15.598827 5.45968171,15.6840921 5.44004949,15.7770515 L4.811165,18.6049479 C4.77561305,18.7688763 4.8261992,18.9396133 4.94530798,19.0577037 C5.06441677,19.1757941 5.23556206,19.2248927 5.39914643,19.1879021 L8.22145727,18.5640388 C8.31440265,18.5444047 8.39965535,18.4982194 8.46687566,18.4310844 L19.0556544,7.84057499 C19.148061,7.74845531 19.2,7.62333282 19.2,7.49284221 C19.2,7.3623516 19.148061,7.23722911 19.0556544,7.14510943 L16.8520024,4.94621281 C16.7464004,4.83912278 16.5975449,4.78635552 16.4480846,4.80302944 L16.4480846,4.80302944 Z M16.5043264,5.9842967 L18.0126266,7.49284303 L17.3684034,8.13717063 L15.8601032,6.6286243 L16.5043264,5.9842967 Z M15.1698641,7.31897623 L16.6730514,8.83263619 L8.59981065,16.9071889 L7.09151043,15.3986426 L15.1698641,7.31897623 L15.1698641,7.31897623 Z M6.39615843,16.0941131 L7.90957146,17.5975376 L7.87378143,17.6333412 L5.93599903,18.0628864 L6.36548121,16.1247949 L6.39615843,16.0941131 Z" id="Shape" fill="#464646" fill-rule="nonzero"></path>
    </g>
</svg>