<?xml version="1.0" encoding="UTF-8"?>
<svg width="24px" height="24px" viewBox="0 0 24 24" version="1.1" xmlns="http://www.w3.org/2000/svg" xmlns:xlink="http://www.w3.org/1999/xlink">
    <!-- Generator: Sketch 53 (72520) - https://sketchapp.com -->
    <title>pencil_eye_v1</title>
    <desc>Created with Sketch.</desc>
    <g id="pencil_eye_v1" stroke="none" stroke-width="1" fill="none" fill-rule="evenodd">
        <path d="M14.0480846,2.40302944 C13.9375131,2.41631157 13.8347434,2.46680292 13.7566504,2.54621281 L3.17298442,13.1315971 C3.10586021,13.198827 3.05968171,13.2840921 3.04004949,13.3770515 L2.411165,16.2049479 C2.37561305,16.3688763 2.4261992,16.5396133 2.54530798,16.6577037 C2.66441677,16.7757941 2.83556206,16.8248927 2.99914643,16.7879021 L5.82145727,16.1640388 C5.91440265,16.1444047 5.99965535,16.0982194 6.06687566,16.0310844 L16.6556544,5.44057499 C16.748061,5.34845531 16.8,5.22333282 16.8,5.09284221 C16.8,4.9623516 16.748061,4.83722911 16.6556544,4.74510943 L14.4520024,2.54621281 C14.3464004,2.43912278 14.1975449,2.38635552 14.0480846,2.40302944 L14.0480846,2.40302944 Z M14.1043264,3.5842967 L15.6126266,5.09284303 L14.9684034,5.73717063 L13.4601032,4.2286243 L14.1043264,3.5842967 Z M12.7698641,4.91897623 L14.2730514,6.43263619 L6.19981065,14.5071889 L4.69151043,12.9986426 L12.7698641,4.91897623 L12.7698641,4.91897623 Z M3.99615843,13.6941131 L5.50957146,15.1975376 L5.47378143,15.2333412 L3.53599903,15.6628864 L3.96548121,13.7247949 L3.99615843,13.6941131 Z" id="Shape" fill="#464646" fill-rule="nonzero"></path>
        <path d="M21.9769366,17.3044297 C21.3827577,14.84924 18.6443987,13.2 16.4594417,13.2 C14.2631907,13.2 11.408445,14.8855358 10.8230634,17.3044297 L10.8,17.4 L10.8230634,17.4955703 C11.408445,19.9144642 14.2631907,21.6 16.4594417,21.6 C18.6443987,21.6 21.3827577,19.95076 21.9769366,17.4955703 L22,17.4 L21.9769366,17.3044297 Z M16.4594417,20.8551525 C14.5398323,20.8551525 12.0620656,19.4411825 11.503195,17.4 C12.0620656,15.3588175 14.5398323,13.9448475 16.4594417,13.9448475 C18.3237703,13.9448475 20.7398365,15.3588175 21.296805,17.4 C20.7398365,19.4411825 18.3237703,20.8551525 16.4594417,20.8551525 Z M16.4891625,15.187261 C15.3434837,15.187261 14.4148859,16.2071995 14.4148859,17.4652802 C14.4148859,18.723361 15.3436026,19.7432994 16.4891625,19.7432994 C17.6347224,19.7432994 18.5634391,18.7234916 18.5634391,17.4652802 C18.5634391,16.2070689 17.6348413,15.187261 16.4891625,15.187261 Z" id="Shape-Copy-11" fill="#464646" fill-rule="nonzero"></path>
    </g>
</svg>